<svg xmlns="http://www.w3.org/2000/svg" viewBox="0 0 208.2 374.78"><defs><style>.cls-1{fill:#ffe036;}.cls-2{fill:#231f20;}.cls-3{fill:#fff;}</style></defs><title>Asset 1</title><g id="Layer_2" data-name="Layer 2"><g id="Layer_1-2" data-name="Layer 1"><path id="p2" class="cls-1" d="M106.93,3.13c4.58-4.12,12.59-4.34,16.9.32,3.3,3.67,2.89,9.33,1,13.58-1.69,3.59-5.72,4.85-9.11,6.25,1.46,9.75,1.15,19.79,4,29.3,1.28,4.42,4.37,9,9.27,9.7,4.88.84,9.24-2.35,12.2-5.9,5-6,8.45-13.17,13.26-19.36-1.16-3.26-2.89-6.36-3.37-9.81,0-5,4.27-11.15,9.88-9.75,6,1.85,10.64,9,8.4,15.18-1.67,4-6.55,4.34-10.27,4.87C157.64,47,154.5,56.4,155.58,66c.37,4.35,3.73,8.49,8.34,8.48,6.33-.29,11.5-4.42,16.71-7.58,4.3-2.89,9.49-5.24,11.94-10.08,1.77-3.32,1.1-7.18.7-10.74,2.38-2.07,5.34-4.3,8.69-3.17,5.28,2,8,9.41,5,14.21-2.25,3.29-6.59,2.74-10,2.75C180.65,87.4,163.13,114.11,146,141a93.17,93.17,0,0,0-18.41-16.32c-3.08-2.14-6.9-2.43-10.51-2.79-14.32-1.23-28.64-2.56-43-3.56-9.35-.67-19.13-1.58-28,2.24-1.47-6.07-2.39-12.27-4.17-18.26-6.46-22-13.92-43.74-19.42-66-2.51-.85-5.44-1.19-7.32-3.24C10.53,27.78,15,17.92,22,17.76c3.81.12,5.86,3.72,8,6.36-.51,3.25-1.14,6.62-3.5,9.1C31.24,40,35,47.47,40.88,53.41c3.55,3.57,8.87,6.51,14,4.76,4-1.64,5.75-6.12,6.72-10,1.66-7.55,2.15-15.29,3.28-22.93-2.33-1.16-5-2.06-6.6-4.24-4.15-5.23-2-14.61,4.85-16.32C69.52,2.7,75.93,8.89,75.28,15.29c.17,3.95-2.95,6.66-5.93,8.67,3.2,8.6,4.3,18,9,26,2.26,4.07,6.82,7.26,11.64,6.42s7.88-5.13,10.09-9.13c4.17-7.77,6.49-16.37,10.67-24.14-2.36-2.46-5.26-4.54-6.94-7.56a11.86,11.86,0,0,1,3.15-12.44"/><path id="p3" class="cls-2" d="M46.09,120.6c8.85-3.82,18.63-2.91,28-2.24,14.35,1,28.67,2.33,43,3.56,3.61.36,7.43.65,10.51,2.79A93.17,93.17,0,0,1,146,141c10.29,12,18.25,25.87,25.48,39.9,4.12,8.44,8.09,17.06,10.19,26.25,1.88,7.9,2.05,16.07,2.12,24.15-.44,19.24-1,38.49-2.5,57.68-.5,4.1-.28,8.71-3.23,12-2.33-4.86-2.61-10.31-3.13-15.58-1.56-18.44-2.27-36.94-3.75-55.38-.46-6.32-1.5-12.73-4.56-18.36-7.06-13.68-14.83-27-22.85-40.12a60.22,60.22,0,0,0-11.3-14.26l-4.1,6.82c12.79,10.36,17.95,28.59,12.73,44.16,3.95,7.33,8,14.6,11.94,21.94-1.61,2.46-3.21,4.94-4.82,7.41,3.87,1.87,7.67,3.86,11.47,5.87q2.55,14,5.22,28.06c-2.68,3.12-5.34,6.26-8.07,9.34,1.25,1.79,2.52,3.55,3.8,5.32-1.81,8.33-3.8,16.61-5.7,24.92-2.82,1.45-5.61,2.94-8.42,4.41q1.79,2.47,3.6,4.95c-3.18,6.2-5.78,12.72-9.28,18.75-2.79,2-6.22,2.86-9.3,4.31,0,3.45,0,6.9,0,10.36-7.37,7.06-14.94,13.92-22.43,20.84-18.15,0-36.3,0-54.45,0-8.44-8.79-16.75-17.7-25.11-26.57q.36-3.06.69-6.12c-3.46-1.81-7.36-3-10.44-5.41-4.72-6.71-9-13.74-13.53-20.6q2.54-4.26,5-8.54c-2.6-1.8-5.54-3.21-7.79-5.47C2,294.85,1.26,287.52,0,280.28v-.72c2.17-2.36,4.44-4.63,6.71-6.88-2-3.09-4-6.15-5.94-9.24,2-7.92,3.64-16,6-23.83,1.93-2,4.56-3.09,6.86-4.58-1-2.28-2-4.56-3-6.85,4.06-6.65,8.47-13.08,13.17-19.29,1.73-2.19,3.58-4.58,6.33-5.5,3.45-1.16,7.12-1.25,10.7-1.66q8.79-11,17.46-22.15c-2.25-10.22-2-20.73-2.44-31.12-5.61,1-12,2.4-17.07-1-4.36-2.81-5.56-8.51-4.36-13.3.93-6.36,5.9-11.32,11.72-13.58"/><path id="p4" class="cls-3" d="M41.69,129.91c4.72-5.4,12.23-7.74,19.26-7.45C78,122.55,95,124,112,125.15c4.69.52,9.85.2,14,2.93a90.73,90.73,0,0,1,15.08,12.12c8.88,9.25,15.15,20.55,21.37,31.65,6.07,11.41,11.72,23.11,15.64,35.45,2.39,7.37,2.59,15.19,2.55,22.87-.29,17.71-.7,35.46-2.32,53.11-2.1-15.56-2.59-31.28-3.46-46.95-.49-8.15-.36-16.65-3.9-24.23-6.61-14.6-14.47-28.59-21.77-42.85-4.39-8.66-9.22-17.21-15.82-24.4-7.28-8.28-17.12-14.92-28.2-16.47-10-.56-19.74,2.71-29.16,5.73,8.4-.87,16.57-3.53,25.06-3.61,9.52.35,18.18,5.38,25.1,11.63A58.17,58.17,0,0,1,140,160.75c-2.94-3.28-6-6.53-9.71-8.91q-2.8,4.81-5.68,9.59a47.42,47.42,0,0,0-12.52-5.22,23.78,23.78,0,0,0,15.14-10.77c-5.63,4.42-12.11,8.27-19.49,8.42q-1.38-1.16-2.79-2.25c-1.05.48-2.1,1-3.14,1.47a34.12,34.12,0,0,1-14.89-7.66c-5.5-4.85-11.45-9.91-18.91-11.18-7.64-1.59-15.69.93-21.6,5.87,8.13-2.65,17.67-4.44,25.43.25,8.63,5.26,16.16,12.76,26.3,15.1a40.44,40.44,0,0,0-31.53,22.62l-3.12-.24c-1.85-10.11-1.3-20.44-1.81-30.65,4.24-.67,8.26.92,12.17,2.3-2.26-2.83-5.12-5.46-8.82-6.1-7.1-1.81-14,3.33-21.07,1.45-5.93-2.21-5.85-10.64-2.29-14.93"/><path id="p5" class="cls-2" d="M99.35,136.52a4.44,4.44,0,0,1,6.73,1.89c1.7,3.11-1.82,7.14-5.18,6-3.56-.68-4.6-5.87-1.55-7.91"/><path id="p6" class="cls-3" d="M103.36,155.29l1.67-1.61a44.84,44.84,0,0,1,0,14.16l-1.66-1.58a91.25,91.25,0,0,1,0-11"/><path id="p7" class="cls-3" d="M71.15,177.33c6-10.89,17.89-17.94,30.24-18.66l-.28,2.41c-11.15,1-21.86,7-27.5,16.84C65.56,191,68,209.46,79.27,220c11.46,11.6,31.42,12.73,44.23,2.72,13.08-9.45,17.41-28.71,9.78-42.9A33.68,33.68,0,0,0,109.91,162c-1.9,0-2.79-1.1-2.62-3a37.07,37.07,0,0,1,24.34,13.73,36.58,36.58,0,0,1-22.76,58.79c-13.63,2.48-28.21-3.91-36-15.29a36.58,36.58,0,0,1-1.73-38.89"/><path id="p8" class="cls-3" d="M77.88,178.69A31.16,31.16,0,0,1,101,165.26c.3,1.66.65,4.46,3,4.28,2.59.61,3.3-2.14,4-4a38.23,38.23,0,0,1,11.28,4.48c-2.17,2.91-4.29,6.2-7.78,7.66-4.25,1.77-9,1.52-13.48,1.7-6.7-.19-13.42-.16-20.1-.73"/><path id="p9" class="cls-3" d="M117.74,180.64c1.7-2.66,3.41-5.3,5.22-7.88,8.52,7.89,12.45,20.59,8.63,31.73a8,8,0,0,1-2.69-3.2c-3.66-6.92-7.52-13.73-11.16-20.65"/><path id="p10" class="cls-3" d="M61.29,181.39l3.71.27a47.86,47.86,0,0,0-2.14,17c-5.22.29-10.4,1-15.59,1.67,4.67-6.32,9.42-12.58,14-18.95"/><path id="p11" class="cls-3" d="M73,198.08a32.26,32.26,0,0,1,2.54-15.39c12.65.78,25.35,1.63,38,.61,2.33,5.46,4.86,10.83,7.21,16.28A301.15,301.15,0,0,0,73,198.08"/><path id="p12" class="cls-3" d="M35.89,205.33c8.6-1.21,17.27-2.26,26-2.08-2.38,1.44-4.54,3.31-7.12,4.39-5,.68-10,.61-15,1.15q-1.93-1.74-3.89-3.46"/><path id="p13" class="cls-3" d="M73.84,203.33c7.57-.58,15.14-.15,22.72-.07q-2.31,2.29-4.46,4.74c-5.46-.11-10.91.34-16.37.28-.64-1.65-1.28-3.3-1.89-4.95"/><path id="p14" class="cls-3" d="M104.07,203.39a169.28,169.28,0,0,1,26.61,3.74l-1.84,3.7a124.63,124.63,0,0,0-14.3-1.23,116.21,116.21,0,0,1-10.47-6.21"/><path id="p15" class="cls-3" d="M94.89,210.51a41,41,0,0,1,4.62-4.61c1.79,6.55,3.57,13.1,5.26,19.68-1.84-.08-3.68-.17-5.51-.29-1.48-4.92-2.88-9.87-4.37-14.78"/><path id="p16" class="cls-3" d="M32.21,207l3.65,3c-3.09,6-5.88,12.2-9.28,18-2.26,1.77-5,2.86-7.42,4.28a132.59,132.59,0,0,1,13-25.34"/><path id="p17" class="cls-3" d="M55.45,210.8A75.2,75.2,0,0,1,62,206.2a144.18,144.18,0,0,0-8.83,24.59q-2.24-1.59-4.49-3.16c2.33-5.58,4.15-11.38,6.74-16.83"/><path id="p18" class="cls-3" d="M57,231.21c1.69-8.33,4.49-16.37,7.34-24.37A70.22,70.22,0,0,0,68,215.37c-1.26,3.51-2.1,7.17-3.54,10.61-2.33,1.94-5,3.4-7.43,5.23"/><path id="p19" class="cls-3" d="M103.91,207.11c2.81,1.62,5.79,3,8.44,4.86,1.64,3.39,2.11,7.25,3.32,10.81-2.34.83-4.7,1.58-7.08,2.29-1.55-6-3-12-4.68-18"/><path id="p20" class="cls-3" d="M38.37,211.24c4.5-.32,9-.49,13.52-.79-2.06,5.38-4.33,10.68-6.49,16-5.14.4-10.29.59-15.43,1,2.95-5.34,5.56-10.86,8.4-16.26"/><path id="p21" class="cls-3" d="M77.59,211.55c4.87-.08,9.75,0,14.63,0q2,6.6,3.85,13.22a31.06,31.06,0,0,1-18.48-13.18"/><path id="p22" class="cls-3" d="M139.6,211.45c3.68,6,6.84,12.38,10.39,18.5l-2.28,3.76c-2.42-6.7-5.87-12.92-9.22-19.17l1.11-3.09"/><path id="p23" class="cls-3" d="M116.63,213a64.4,64.4,0,0,1,10.29.6,39.47,39.47,0,0,1-8.13,7.46q-1.06-4-2.16-8.06"/><path id="p24" class="cls-3" d="M136.27,216.83c4.08,4.85,6.17,11,8.36,16.88-4.74-3.59-6.13-9.47-8.55-14.58,0-.58.14-1.73.19-2.3"/><path id="p25" class="cls-3" d="M67.69,226c.84-2.39,1.7-4.78,2.53-7.18a55,55,0,0,0,6.35,6.95,87.61,87.61,0,0,0-8.88.23"/><path id="p26" class="cls-3" d="M14.56,228.08c1.56-2.57,3.09-5.16,4.85-7.6-1.3,3.27-2.76,6.47-4.06,9.75-.26-.72-.53-1.44-.79-2.15"/><path id="p27" class="cls-3" d="M133.86,221.28c1.61,1.94,2.21,4.47,3.21,6.74a80.34,80.34,0,0,1-9.93-.38c2.36-2,4.51-4.21,6.72-6.36"/><path id="p28" class="cls-3" d="M60.1,233.21c2.24-1.73,4.42-3.65,7-4.79A101.54,101.54,0,0,1,79.34,228a53.28,53.28,0,0,0,9.34,5.05c-9.53-.26-19.05.16-28.58.15"/><path id="p29" class="cls-3" d="M20.67,234.49c3.69-1.76,7-5,11.29-5,4.4-.18,8.8-.7,13.21-.73,2.82,1.46,5.2,3.66,7.82,5.45-10.78-.12-21.54.43-32.32.26"/><path id="p30" class="cls-3" d="M112.12,234.48a43.38,43.38,0,0,0,12.17-4.94c4.66,1,9.43.83,14.13,1.16a39.05,39.05,0,0,1,6.43,6.42c-10.91-.92-21.81-1.86-32.73-2.64"/><path id="p31" class="cls-3" d="M19.72,237c10,.42,20,.47,30,.77-2.52,1.9-5,3.81-7.6,5.67-5.43.36-10.87.18-16.29.46-2.06-2.28-4.07-4.58-6.07-6.9"/><path id="p32" class="cls-3" d="M56.65,236.5c17,0,34-.09,50.93.84-3.18,1.88-6.06,4.36-9.45,5.84-11.67.2-23.35,0-35,.07-2-2.34-4.24-4.55-6.45-6.75"/><path id="p33" class="cls-3" d="M112.88,237.2c11.26,1,22.63,1.44,33.77,3.55q-1.56,2.71-3.18,5.38a116,116,0,0,0-20.72-1.62c-3.36-2.34-6.62-4.83-9.87-7.31"/><path id="p34" class="cls-3" d="M17.07,238.92c1.91,2,3.76,4,5.61,6-2.68,6.21-4.49,13-3.4,19.8-2.31,1.52-4.68,3-7.09,4.34.47-10.19,1.4-20.52,4.88-30.17"/><path id="p35" class="cls-3" d="M9.46,241.83l4.16-2.75a220.76,220.76,0,0,0-5.8,28.25c-1-1.74-2-3.49-3-5.23,1.59-6.75,3.06-13.52,4.67-20.27"/><path id="p36" class="cls-3" d="M43.24,246.11c2.85-2.36,5.72-4.69,8.58-7a185.29,185.29,0,0,0-2.57,33c-2.18-2.51-4.33-5.06-6.42-7.65.19-6.1.51-12.21.41-18.32"/><path id="p37" class="cls-3" d="M55.33,239.79a81.51,81.51,0,0,1,5.77,5.84c.09,6.27-.79,12.54-1.17,18.8-2.2,1.55-4.35,3.17-6.46,4.84a252.66,252.66,0,0,1,1.86-29.48"/><path id="p38" class="cls-3" d="M101.09,245.57c2.36-1.73,4.75-3.42,7.14-5.11,1.66,10.8,2.21,21.73,2.75,32.64-2.76-2.6-5.65-5.07-8.46-7.62a122.93,122.93,0,0,0-1.43-19.91"/><path id="p39" class="cls-3" d="M112.17,239.79c2.7,2.07,5.35,4.19,8.05,6.27.39,6.93,1.09,13.84,1.84,20.74q-3.44,3.72-6.79,7.51a264.17,264.17,0,0,0-3.1-34.52"/><path id="p40" class="cls-3" d="M150.47,241.87c2.27,1.21,5.08,1.88,6.9,3.71,1.6,8.19,3.05,16.44,4.36,24.69-1.53,2.71-4,4.74-5.95,7.13a123,123,0,0,0-5.31-35.53"/><path id="p41" class="cls-3" d="M148.37,244a154,154,0,0,1,4.9,29.24l1.25.41c-2.25.64-3.19-2.33-4.27-3.75-1.23-7.19-2.12-14.47-4.51-21.41q1.32-2.23,2.63-4.49"/><path id="p42" class="cls-3" d="M24.7,247.64c.24-1.67,2.06-1.24,3.27-1.38,4.28-.12,8.57-.23,12.85-.42q-.33,9.36-.88,18.71-9-.51-18-.83c-1.16-5.5.76-11,2.78-16.08"/><path id="p43" class="cls-3" d="M64.51,245.76H98.05a161.2,161.2,0,0,1,1.72,19c-12.26-.11-24.52-.48-36.79-.5.56-6.16.94-12.34,1.53-18.5"/><path id="p44" class="cls-3" d="M122.94,247.25a104.78,104.78,0,0,1,19.92,1.65c2.44,6,3.46,12.47,4.23,18.88a204.62,204.62,0,0,1-22.27-1.36c-.87-6.37-1.58-12.76-1.88-19.17"/><path id="p45" class="cls-3" d="M15.77,270.24a49.66,49.66,0,0,1,7-4.16c6-.28,12,.53,18,.43,1.43,1.76,2.83,3.55,4.23,5.34q-14.62-.67-29.23-1.61"/><path id="p46" class="cls-3" d="M53.79,272.73a90,90,0,0,1,8.36-6.46c12.45-.08,24.89.4,37.33.76,3.39,2.77,6.69,5.65,10,8.55-18.5-1.75-37.08-2.75-55.66-2.85"/><path id="p47" class="cls-3" d="M118.33,276.13c1.95-2.25,4-4.4,6-6.65,7.42.55,14.84,1.23,22.28,1.32,1.85,2.31,3.71,4.61,5.55,6.93-11.3.34-22.55-.83-33.8-1.6"/><path id="p48" class="cls-3" d="M13.73,274.39c10.81.66,21.6,1.56,32.4,2.28-2.31,1.89-4.72,3.65-7.13,5.41-6.7-.79-13.39-1.67-20.08-2.48-1.71-1.76-3.44-3.49-5.19-5.21"/><path id="p49" class="cls-3" d="M3.28,281.32c.63-1.82,2.52-3,3.74-4.48a185.82,185.82,0,0,0,3.7,26.48l-4.9-3.19c-.69-6.29-2-12.5-2.54-18.81"/><path id="p50" class="cls-3" d="M11.94,276.67c1.83,1.71,3.69,3.39,5.51,5.12.27,5.76.37,11.52.59,17.29-1.18,1.53-2.35,3.06-3.53,4.58a224.06,224.06,0,0,1-2.57-27"/><path id="p51" class="cls-3" d="M53.86,276.76c18.78-.34,37.52,1.27,56.22,2.87-4.34,1.88-8.11,6.12-13.19,5.34-12.09-.82-24.22-1.14-36.28-2.17-2.43-1.8-4.49-4.05-6.75-6"/><path id="p52" class="cls-3" d="M41.21,284.17q3.53-2.69,7-5.44c.56,9.53.84,19.07,1.36,28.61C47,305,44.45,302.65,42,300.15c-.19-5.33-.55-10.65-.83-16"/><path id="p53" class="cls-3" d="M52.73,279.69q3.12,2.71,6,5.69c.6,6.28,1.11,12.57,1.76,18.84-2.21,1.45-4.41,2.89-6.67,4.26-.42-9.6-1-19.19-1.1-28.79"/><path id="p54" class="cls-3" d="M116.11,280.28a336.93,336.93,0,0,1,36.5,1.26c-2.31,1.89-4.59,3.82-6.87,5.75-7.79-.49-15.59-.66-23.39-1.08-2-2-4.14-4-6.24-5.93"/><path id="p55" class="cls-3" d="M20,282.18c6.23.85,12.46,1.73,18.7,2.53.17,5.13.55,10.26.62,15.4-6.24-.7-12.46-1.59-18.7-2.26-.17-5.23-.55-10.44-.62-15.67"/><path id="p56" class="cls-3" d="M102.59,287.63c2.75-1.8,5.6-3.42,8.46-5-.62,10.55-1.32,21.09-2.44,31.6-2.5-2.44-5.05-4.8-7.65-7.13.55-6.48,1.2-12.95,1.63-19.43"/><path id="p57" class="cls-3" d="M112,313.41c1.34-10.17,1.86-20.45,3-30.63,1.82,1.67,3.58,3.4,5.34,5.14-.34,6.43-.84,12.86-1.34,19.28-2.35,2-4.65,4.13-7,6.21"/><path id="p58" class="cls-3" d="M155.58,283.67c.87,1.23,1.76,2.45,2.65,3.68-1.72,7.31-3.36,14.64-5.11,22l-4.67,2.54a126.15,126.15,0,0,0,7.13-28.17"/><path id="p59" class="cls-3" d="M148.33,289.43c1.15-1.88,3.18-3.05,4.77-4.53-1.89,9.21-3.85,18.48-7.47,27.2l-2.23-4.63c1.87-5.95,3.35-12,4.93-18"/><path id="p60" class="cls-3" d="M61.42,285.72c12.64.52,25.26,1.29,37.89,2-.51,5.81-1,11.62-1.36,17.44-11.63-.46-23.24-1-34.87-1.42-.57-6-1.18-12-1.66-18"/><path id="p61" class="cls-3" d="M122.31,288.21c7.67.38,15.34.64,23,1.12-1.34,5.74-2.89,11.43-4.2,17.17-6.64.07-13.28-.2-19.91.3.37-6.2.86-12.39,1.1-18.59"/><path id="p62" class="cls-3" d="M16,305.87c1.6-2,3.17-4,4.76-5.93,6.33.87,12.68,1.61,19,2.41,2.82,3.09,5.74,6.07,8.71,9-10.83-1.79-21.66-3.67-32.49-5.49"/><path id="p63" class="cls-3" d="M56.8,310.58c2.31-1.54,4.34-4,7.1-4.49,10.68.49,21.39.76,32,1.56,3,1.81,5.25,4.69,8,6.9-15.75-.49-31.59-1-47.11-4"/><path id="p64" class="cls-3" d="M120.5,308.56c6.69-.09,13.37-.06,20.06,0q1.29,3,2.61,6-14.26,0-28.53,0c2-2,3.94-3.94,5.86-5.94"/><path id="p65" class="cls-3" d="M17.83,309.62c10.53,1.86,21.11,3.43,31.75,4.55-1.48,2.12-3,4.2-4.55,6.3-5.73-1.15-11.58-1.71-17.26-3.1-3.62-2.14-6.61-5.19-9.94-7.75"/><path id="p66" class="cls-3" d="M9.9,316.2,13,311.08c3.72,9.22,9,17.68,14.05,26.19-2.3-1.31-5.43-1.81-6.68-4.44-3.48-5.54-7-11.07-10.45-16.63"/><path id="p67" class="cls-3" d="M16.82,313c2.61,2.24,5.64,4,7.94,6.61,2.82,5,5.33,10.15,7.87,15.29-.67,1.14-1.34,2.3-2,3.46Q23.16,325.95,16.82,313"/><path id="p68" class="cls-3" d="M54,314.32a292.43,292.43,0,0,0,53.46,3.17c-3.2,1.8-6.1,4.4-9.62,5.47-10,.16-20-.64-30-1.21-5.63.27-9.88-4-13.83-7.43"/><path id="p69" class="cls-3" d="M111.8,317.07c9.88-.12,19.75,0,29.63,0-2.46,1.59-4.71,3.56-7.36,4.84-5.67.72-11.43.3-17.13.56a49,49,0,0,1-5.14-5.35"/><path id="p70" class="cls-3" d="M46.91,322.54c1.12-1.54,2.23-3.09,3.37-4.62,1.72,7.51,3.34,15,5.26,22.49-1.68-1.87-3.55-3.58-5.1-5.57-1.63-3.95-2.25-8.23-3.53-12.3"/><path id="p71" class="cls-3" d="M53.94,318.57a66.27,66.27,0,0,0,7.16,4.69c1.32,4.86,1.8,9.93,2.74,14.88-1.61,1.2-3.2,2.42-4.8,3.63a172.92,172.92,0,0,1-5.1-23.2"/><path id="p72" class="cls-3" d="M145.32,317.6l2.5,3.53c-2.77,5.51-5.37,11.1-8.07,16.64-2.11.82-4.22,1.67-6.31,2.54,3.89-7.6,7.87-15.16,11.88-22.71"/><path id="p73" class="cls-3" d="M27.83,320.47c5.54.79,11.09,1.51,16.62,2.35,1.09,4,2.18,8,3.2,12.06q-6.66-.78-13.3-1.66c-2.09-4.29-4.41-8.47-6.52-12.75"/><path id="p74" class="cls-3" d="M100.38,327.26c.54-3.63,4.7-4.49,7.12-6.59-2,7.46-4.08,14.88-6.58,22.19-1.23-1.34-2.44-2.69-3.66-4,1.1-3.85,2.06-7.73,3.12-11.57"/><path id="p75" class="cls-3" d="M110.89,320.71c1.07,1.22,2.14,2.46,3.22,3.68-1.27,4-2.43,8-3.68,11.92-.59,2.9-3.66,4-5.71,5.7,2.25-7,4.41-14.12,6.17-21.3"/><path id="p76" class="cls-3" d="M134.8,327.15c1-3.23,4.33-4.71,6.75-6.74-3.62,6.69-7,13.48-10.77,20.1-1.06-4.9,2.48-9,4-13.36"/><path id="p77" class="cls-3" d="M64.51,323.69c11.33.61,22.67,1.1,34,1.85-1.16,4.17-2.35,8.33-3.47,12.52-9.48-.36-18.95-.87-28.44-1.07-.67-4.44-1.39-8.87-2.08-13.3"/><path id="p78" class="cls-3" d="M112.89,337.55c1.26-4.2,2.6-8.37,4-12.54h16.39c-1.58,3.7-3.23,7.37-4.74,11.11-5.2.57-10.42.94-15.63,1.42"/><path id="p79" class="cls-3" d="M35.48,335.2c4.39.52,8.77,1.18,13.16,1.69,1.46,1.6,2.86,3.25,4.24,4.92a97.86,97.86,0,0,1-19.63-2.7l2.23-3.91"/><path id="p80" class="cls-3" d="M112,339.8c5.46-.77,11-1.23,16.47-1.58.17,1.31.34,2.63.52,3.94a183,183,0,0,1-22.9,1.9A40.25,40.25,0,0,1,112,339.8"/><path id="p81" class="cls-3" d="M62,343.32q2.05-1.7,4.13-3.37c9.86.17,19.71.65,29.58.84.83,1,1.66,2,2.49,3-12.07-.11-24.15.23-36.2-.46"/><path id="p82" class="cls-3" d="M34.61,342.7c7,1.84,14.23,2.49,21.4,3.31q-1.38,1.83-2.81,3.61c-2.87-.39-5.78-.55-8.61-1.17-3.52-1.56-6.68-3.79-10-5.75"/><path id="p83" class="cls-3" d="M104.15,346.19c7.29-.28,14.65-.17,21.83-1.67-3.19,2.09-6.32,4.25-9.42,6.47-2.86,0-5.74.15-8.6-.06a36.27,36.27,0,0,1-3.81-4.74"/><path id="p84" class="cls-3" d="M33.28,344.69c3.25,2.15,6.85,3.89,9.71,6.56,3,4,5.83,8.14,8.72,12.22,1.2,1.44,1.4,3.3,1.68,5.08-5.7-5.86-11.06-12-16.66-18-1.53-1.72-3.6-3.31-3.45-5.87"/><path id="p85" class="cls-3" d="M61.09,346c12.36.56,24.72,1.13,37.09.51-3.1,1.52-6,3.46-9.24,4.66a158.13,158.13,0,0,1-16-.06c-4.47-.14-8.17-2.9-11.85-5.11"/><path id="p86" class="cls-3" d="M118.18,363.6c3.65-5.63,7.52-11.12,11.31-16.65,0,2,0,4,0,5.94-3.69,3.66-7.42,7.28-11.33,10.71"/><path id="p87" class="cls-3" d="M117.58,355.84c1.73-3.48,5.17-5.44,8.14-7.73-5.2,7.41-10.11,15-15.32,22.42.21-5.73,4.66-9.86,7.18-14.69"/><path id="p88" class="cls-3" d="M60.93,348.93c2,1.39,4.24,2.49,5.9,4.26,1.64,4.56,2.63,9.33,4,14-1.19,1.52-2.41,3-3.63,4.52-2.09-7.59-4.14-15.18-6.3-22.75"/><path id="p89" class="cls-3" d="M92.47,370.09c3.5-7.07,6.78-14.26,10.25-21.35l2.61,3.35c-2.36,4.55-4.45,9.24-6.94,13.72-1.63,1.83-3.94,2.89-5.92,4.28"/><path id="p90" class="cls-3" d="M56.54,349.2c2.7,6.34,4.76,13,7,19.46l-1.64-2.08-1.61,1.65c1.29,1.3,2.55,2.65,3.8,4l-7,0c-.37-2.17-.77-4.33-1.1-6.5l3.16,1c.46-.45.92-.9,1.39-1.34-2.15-2.57-2.38-6-3.45-9.08-.54-2.32-1.89-4.8-.57-7.15"/><path id="p91" class="cls-3" d="M91.95,353.11c2.54-1,5.07-2,7.61-3-3.69,7.34-7.23,14.75-11.16,22q-1.6-2.5-3.18-5c2.24-4.65,4.41-9.33,6.73-13.94"/><path id="p92" class="cls-3" d="M45.86,350.94c2.77.22,5.54.48,8.29.86,1,4.08,2.28,8.11,3.27,12.2-1-.37-2.39-.08-3-1.11q-4.38-5.89-8.55-12"/><path id="p93" class="cls-3" d="M70,353c6.28,0,12.56.47,18.84.56-2,4.14-3.92,8.33-6,12.47-3.09,0-6.19,0-9.29,0L70,353"/><path id="p94" class="cls-3" d="M106.86,353.26H117c-2.38,3.73-4.77,7.45-7.13,11.19-2.91.25-5.81.52-8.72.76,2-3.94,3.83-8,5.71-12"/><path id="p95" class="cls-3" d="M93.39,372.25a77.24,77.24,0,0,1,6.72-4.51c2.65-.73,5.45-.62,8.18-1-.24,1.82-.46,3.64-.68,5.47-4.74,0-9.48,0-14.22,0"/><path id="p96" class="cls-3" d="M73.5,368.55c3.19-.06,6.39-.05,9.58,0l2.33,3.75H70.29c1.08-1.23,2.15-2.46,3.21-3.71"/></g></g></svg>